#define resize_width 32
#define resize_height 32
#define resize_x_hot 9
#define resize_y_hot 9
static unsigned char resize_bits[] = {
   0x00, 0x00, 0x00, 0x00, 0x00, 0x00, 0x00, 0x00, 0xfc, 0x00, 0x00, 0x00,
   0x3c, 0x00, 0x00, 0x00, 0x5c, 0x00, 0x00, 0x00, 0x8c, 0x00, 0x00, 0x00,
   0x14, 0x01, 0x00, 0x00, 0x24, 0x02, 0x00, 0x00, 0x40, 0x04, 0x00, 0x00,
   0x80, 0x08, 0x00, 0x00, 0x00, 0x11, 0x00, 0x00, 0x00, 0x22, 0x01, 0x00,
   0x00, 0x44, 0x01, 0x00, 0x00, 0x88, 0x01, 0x00, 0x00, 0xd0, 0x01, 0x00,
   0x00, 0xe0, 0x01, 0x00, 0x00, 0xf8, 0x01, 0x00, 0x00, 0x00, 0x00, 0x00,
   0x00, 0x00, 0x00, 0x00, 0x00, 0x00, 0x00, 0x00, 0x00, 0x00, 0x00, 0x00,
   0x00, 0x00, 0x00, 0x00, 0x00, 0x00, 0x00, 0x00, 0x00, 0x00, 0x00, 0x00,
   0x00, 0x00, 0x00, 0x00, 0x00, 0x00, 0x00, 0x00, 0x00, 0x00, 0x00, 0x00,
   0x00, 0x00, 0x00, 0x00, 0x00, 0x00, 0x00, 0x00, 0x00, 0x00, 0x00, 0x00,
   0x00, 0x00, 0x00, 0x00, 0x00, 0x00, 0x00, 0x00};
